<svg xmlns="http://www.w3.org/2000/svg" xmlns:xlink="http://www.w3.org/1999/xlink" width="500" zoomAndPan="magnify" viewBox="0 0 375 374.999991" height="500" preserveAspectRatio="xMidYMid meet" version="1.0"><defs><g/><clipPath id="1322978310"><path d="M 112.5 102.464844 L 262.5 102.464844 L 262.5 252.464844 L 112.5 252.464844 Z M 112.5 102.464844 " clip-rule="nonzero"/></clipPath></defs><g clip-path="url(#1322978310)"><path fill="#ffffff" d="M 248.378906 173.078125 C 242.519531 165.734375 234.636719 158.527344 225.125 152.003906 C 223.808594 145.023438 221.921875 138.5 219.550781 132.523438 C 229.011719 132.238281 237.058594 133.625 243.125 136.59375 C 242.742188 137.648438 242.5 138.773438 242.5 139.964844 C 242.5 145.480469 246.980469 149.964844 252.5 149.964844 C 253.164062 149.964844 253.816406 149.894531 254.453125 149.769531 C 255.984375 156.449219 253.875 164.542969 248.378906 173.078125 Z M 253.445312 208.382812 C 251.25 213.363281 246.863281 217.113281 240.410156 219.542969 C 234.519531 221.75 227.402344 222.6875 219.519531 222.453125 C 221.933594 216.4375 223.828125 209.867188 225.144531 202.816406 C 234.539062 196.359375 242.5 189.105469 248.417969 181.632812 C 254.6875 191.300781 256.816406 200.765625 253.445312 208.382812 Z M 187.5 247.464844 C 178.300781 247.464844 169.441406 239.992188 162.871094 226.859375 C 170.742188 226.019531 179.003906 224.230469 187.519531 221.449219 C 195.984375 224.210938 204.285156 226.039062 212.117188 226.886719 C 205.546875 240.011719 196.6875 247.464844 187.5 247.464844 Z M 131.875 218.332031 C 132.253906 217.269531 132.5 216.144531 132.5 214.964844 C 132.5 209.445312 128.015625 204.964844 122.5 204.964844 C 121.835938 204.964844 121.179688 205.03125 120.546875 205.160156 C 119.011719 198.480469 121.121094 190.382812 126.609375 181.847656 C 132.480469 189.191406 140.359375 196.398438 149.871094 202.921875 C 151.191406 209.90625 153.074219 216.429688 155.449219 222.394531 C 145.984375 222.6875 137.9375 221.292969 131.875 218.332031 Z M 122.5 219.964844 C 119.746094 219.964844 117.5 217.71875 117.5 214.964844 C 117.5 212.210938 119.746094 209.964844 122.5 209.964844 C 125.253906 209.964844 127.5 212.210938 127.5 214.964844 C 127.5 217.71875 125.253906 219.964844 122.5 219.964844 Z M 121.550781 146.546875 C 123.75 141.566406 128.132812 137.816406 134.589844 135.382812 C 139.910156 133.390625 146.230469 132.414062 153.210938 132.414062 C 153.945312 132.414062 154.714844 132.472656 155.457031 132.492188 C 153.066406 138.507812 151.171875 145.070312 149.851562 152.101562 C 140.46875 158.558594 132.5 165.824219 126.589844 173.292969 C 120.3125 163.617188 118.183594 154.164062 121.550781 146.546875 Z M 166.472656 121.789062 C 167.578125 122.210938 168.757812 122.464844 170 122.464844 C 175.515625 122.464844 180 117.980469 180 112.464844 C 180 111.390625 179.785156 110.375 179.472656 109.40625 C 182.078125 108.136719 184.773438 107.464844 187.5 107.464844 C 196.699219 107.464844 205.554688 114.925781 212.128906 128.070312 C 204.265625 128.898438 196.015625 130.6875 187.519531 133.46875 C 179.042969 130.695312 170.710938 128.871094 162.871094 128.019531 C 163.984375 125.792969 165.195312 123.722656 166.472656 121.789062 Z M 170 107.464844 C 172.753906 107.464844 175 109.710938 175 112.464844 C 175 115.21875 172.753906 117.464844 170 117.464844 C 167.246094 117.464844 165 115.21875 165 112.464844 C 165 109.710938 167.246094 107.464844 170 107.464844 Z M 204.089844 140.03125 C 201.191406 138.675781 198.289062 137.445312 195.390625 136.300781 C 201.914062 134.523438 208.230469 133.402344 214.296875 132.863281 C 216.289062 137.601562 217.949219 142.707031 219.226562 148.1875 C 214.5 145.277344 209.441406 142.53125 204.089844 140.03125 Z M 148.699219 195.910156 C 140.917969 190.101562 134.441406 183.839844 129.609375 177.5625 C 134.480469 171.15625 140.984375 164.855469 148.699219 159.09375 C 147.898438 165.023438 147.5 171.175781 147.5 177.464844 C 147.5 183.78125 147.898438 189.964844 148.699219 195.910156 Z M 179.578125 136.3125 C 176.6875 137.445312 173.796875 138.675781 170.917969 140.023438 C 165.671875 142.472656 160.59375 145.21875 155.761719 148.214844 C 157.050781 142.707031 158.71875 137.570312 160.730469 132.816406 C 166.726562 133.351562 173.066406 134.535156 179.578125 136.3125 Z M 160.703125 222.0625 C 158.710938 217.328125 157.050781 212.21875 155.769531 206.742188 C 160.496094 209.652344 165.554688 212.394531 170.90625 214.894531 C 173.816406 216.261719 176.726562 217.472656 179.636719 218.617188 C 173.105469 220.394531 166.777344 221.527344 160.703125 222.0625 Z M 226.296875 159.015625 C 234.082031 164.828125 240.554688 171.085938 245.390625 177.367188 C 240.527344 183.773438 234.011719 190.070312 226.296875 195.832031 C 227.097656 189.90625 227.5 183.753906 227.5 177.464844 C 227.5 171.144531 227.097656 164.964844 226.296875 159.015625 Z M 222.5 177.464844 C 222.5 185.207031 221.84375 192.738281 220.59375 199.886719 C 214.765625 203.792969 208.503906 207.328125 201.960938 210.375 C 197.128906 212.628906 192.265625 214.582031 187.460938 216.203125 C 182.683594 214.5625 177.839844 212.621094 173.035156 210.375 C 166.328125 207.238281 160.085938 203.703125 154.402344 199.925781 C 153.152344 192.777344 152.5 185.226562 152.5 177.464844 C 152.5 169.710938 153.152344 162.191406 154.402344 155.042969 C 160.234375 151.136719 166.492188 147.609375 173.035156 144.554688 C 177.859375 142.296875 182.722656 140.363281 187.507812 138.742188 C 192.304688 140.382812 197.148438 142.296875 201.960938 144.554688 C 208.671875 147.6875 214.910156 151.222656 220.59375 155.003906 C 221.84375 162.152344 222.5 169.691406 222.5 177.464844 Z M 195.390625 218.625 C 198.28125 217.492188 201.191406 216.253906 204.082031 214.90625 C 209.324219 212.453125 214.402344 209.710938 219.238281 206.710938 C 217.949219 212.230469 216.269531 217.386719 214.257812 222.152344 C 208.25 221.605469 201.902344 220.414062 195.390625 218.625 Z M 252.5 134.964844 C 255.253906 134.964844 257.5 137.210938 257.5 139.964844 C 257.5 142.71875 255.253906 144.964844 252.5 144.964844 C 249.746094 144.964844 247.5 142.71875 247.5 139.964844 C 247.5 137.210938 249.746094 134.964844 252.5 134.964844 Z M 252.5 129.964844 C 249.988281 129.964844 247.734375 130.921875 245.976562 132.445312 C 238.671875 128.683594 228.894531 127.023438 217.449219 127.621094 C 209.941406 111.613281 199.101562 102.464844 187.5 102.464844 C 183.828125 102.464844 180.242188 103.410156 176.796875 105.179688 C 175.007812 103.507812 172.625 102.464844 170 102.464844 C 164.480469 102.464844 160 106.945312 160 112.464844 C 160 114.925781 160.925781 117.152344 162.402344 118.890625 C 160.632812 121.535156 159.011719 124.457031 157.558594 127.589844 C 148.230469 127.113281 139.765625 128.097656 132.832031 130.707031 C 125.175781 133.578125 119.695312 138.363281 116.980469 144.523438 C 112.714844 154.164062 115.4375 165.902344 123.4375 177.5625 C 116.074219 188.292969 113.445312 198.792969 115.9375 207.484375 C 113.847656 209.308594 112.5 211.964844 112.5 214.964844 C 112.5 220.480469 116.980469 224.964844 122.5 224.964844 C 125 224.964844 127.253906 224.007812 129.011719 222.492188 C 135.351562 225.753906 143.542969 227.453125 153.085938 227.453125 C 154.53125 227.453125 156.035156 227.375 157.539062 227.296875 C 165.046875 243.304688 175.898438 252.464844 187.5 252.464844 C 199.101562 252.464844 209.941406 243.3125 217.449219 227.328125 C 218.933594 227.394531 220.417969 227.472656 221.855469 227.472656 C 229.441406 227.472656 236.335938 226.410156 242.167969 224.222656 C 249.824219 221.351562 255.300781 216.574219 258.027344 210.402344 C 262.273438 200.765625 259.558594 189.027344 251.5625 177.367188 C 258.925781 166.632812 261.550781 156.136719 259.0625 147.453125 C 261.152344 145.617188 262.5 142.960938 262.5 139.964844 C 262.5 134.445312 258.015625 129.964844 252.5 129.964844 " fill-opacity="1" fill-rule="nonzero"/></g><path fill="#ffffff" d="M 205 177.464844 L 182.703125 177.464844 L 198.699219 157.464844 L 205 157.464844 Z M 195 187.464844 L 170 187.464844 L 170 182.464844 L 205.007812 182.464844 L 205.007812 187.464844 Z M 192.5 197.464844 L 182.5 197.464844 L 182.5 192.464844 L 192.5 192.464844 Z M 192.292969 157.464844 L 176.296875 177.464844 L 170 177.464844 L 170 157.464844 Z M 165 157.464844 L 165 187.464844 C 165 190.21875 167.246094 192.464844 170 192.464844 L 177.5 192.464844 L 177.5 197.464844 L 172.5 197.464844 C 171.121094 197.464844 170 198.585938 170 199.964844 C 170 201.339844 171.121094 202.464844 172.5 202.464844 L 202.5 202.464844 C 203.875 202.464844 205 201.339844 205 199.964844 C 205 198.585938 203.875 197.464844 202.5 197.464844 L 197.5 197.464844 L 197.5 192.464844 L 205 192.464844 C 207.753906 192.464844 210 190.21875 210 187.464844 L 210 157.464844 C 210 154.710938 207.753906 152.464844 205 152.464844 L 170 152.464844 C 167.246094 152.464844 165 154.710938 165 157.464844 " fill-opacity="1" fill-rule="nonzero"/><g fill="#ffffff" fill-opacity="1"><g transform="translate(115.105471, 277.458527)"><g><path d="M 7.09375 0 L 7.09375 -4.140625 L 2.265625 -4.140625 L 2.265625 0 L 1.0625 0 L 1.0625 -8.921875 L 2.265625 -8.921875 L 2.265625 -5.140625 L 7.09375 -5.140625 L 7.09375 -8.921875 L 8.3125 -8.921875 L 8.3125 0 Z M 7.09375 0 "/></g></g></g><g fill="#ffffff" fill-opacity="1"><g transform="translate(127.708444, 277.458527)"><g><path d="M 7.390625 0 L 6.375 -2.609375 L 2.3125 -2.609375 L 1.28125 0 L 0.03125 0 L 3.671875 -8.921875 L 5.046875 -8.921875 L 8.625 0 Z M 4.34375 -8.015625 L 4.28125 -7.828125 C 4.175781 -7.484375 4.019531 -7.035156 3.8125 -6.484375 L 2.671875 -3.546875 L 6.015625 -3.546875 L 4.859375 -6.5 C 4.742188 -6.789062 4.628906 -7.117188 4.515625 -7.484375 Z M 4.34375 -8.015625 "/></g></g></g><g fill="#ffffff" fill-opacity="1"><g transform="translate(139.596286, 277.458527)"><g><path d="M 7.375 0 L 5.046875 -3.703125 L 2.265625 -3.703125 L 2.265625 0 L 1.0625 0 L 1.0625 -8.921875 L 5.265625 -8.921875 C 6.265625 -8.921875 7.035156 -8.695312 7.578125 -8.25 C 8.128906 -7.800781 8.40625 -7.175781 8.40625 -6.375 C 8.40625 -5.707031 8.210938 -5.144531 7.828125 -4.6875 C 7.441406 -4.238281 6.910156 -3.957031 6.234375 -3.84375 L 8.765625 0 Z M 7.1875 -6.359375 C 7.1875 -6.878906 7.007812 -7.273438 6.65625 -7.546875 C 6.3125 -7.816406 5.804688 -7.953125 5.140625 -7.953125 L 2.265625 -7.953125 L 2.265625 -4.65625 L 5.1875 -4.65625 C 5.832031 -4.65625 6.328125 -4.800781 6.671875 -5.09375 C 7.015625 -5.394531 7.1875 -5.816406 7.1875 -6.359375 Z M 7.1875 -6.359375 "/></g></g></g><g fill="#ffffff" fill-opacity="1"><g transform="translate(152.199261, 277.458527)"><g><path d="M 8.0625 -2.46875 C 8.0625 -1.644531 7.738281 -1.003906 7.09375 -0.546875 C 6.445312 -0.0976562 5.539062 0.125 4.375 0.125 C 2.195312 0.125 0.9375 -0.628906 0.59375 -2.140625 L 1.765625 -2.375 C 1.898438 -1.84375 2.1875 -1.445312 2.625 -1.1875 C 3.0625 -0.9375 3.65625 -0.8125 4.40625 -0.8125 C 5.1875 -0.8125 5.789062 -0.945312 6.21875 -1.21875 C 6.644531 -1.488281 6.859375 -1.882812 6.859375 -2.40625 C 6.859375 -2.695312 6.789062 -2.929688 6.65625 -3.109375 C 6.519531 -3.285156 6.332031 -3.429688 6.09375 -3.546875 C 5.851562 -3.671875 5.566406 -3.773438 5.234375 -3.859375 C 4.898438 -3.941406 4.53125 -4.023438 4.125 -4.109375 C 3.425781 -4.265625 2.890625 -4.421875 2.515625 -4.578125 C 2.148438 -4.734375 1.863281 -4.90625 1.65625 -5.09375 C 1.445312 -5.289062 1.285156 -5.519531 1.171875 -5.78125 C 1.054688 -6.039062 1 -6.335938 1 -6.671875 C 1 -7.429688 1.289062 -8.019531 1.875 -8.4375 C 2.46875 -8.851562 3.304688 -9.0625 4.390625 -9.0625 C 5.410156 -9.0625 6.1875 -8.90625 6.71875 -8.59375 C 7.25 -8.28125 7.625 -7.75 7.84375 -7 L 6.65625 -6.796875 C 6.519531 -7.265625 6.269531 -7.601562 5.90625 -7.8125 C 5.539062 -8.03125 5.03125 -8.140625 4.375 -8.140625 C 3.664062 -8.140625 3.125 -8.019531 2.75 -7.78125 C 2.375 -7.550781 2.1875 -7.203125 2.1875 -6.734375 C 2.1875 -6.453125 2.257812 -6.222656 2.40625 -6.046875 C 2.550781 -5.867188 2.757812 -5.71875 3.03125 -5.59375 C 3.300781 -5.46875 3.847656 -5.316406 4.671875 -5.140625 C 4.941406 -5.078125 5.210938 -5.007812 5.484375 -4.9375 C 5.765625 -4.875 6.03125 -4.796875 6.28125 -4.703125 C 6.53125 -4.617188 6.757812 -4.515625 6.96875 -4.390625 C 7.1875 -4.265625 7.375 -4.113281 7.53125 -3.9375 C 7.695312 -3.757812 7.828125 -3.550781 7.921875 -3.3125 C 8.015625 -3.070312 8.0625 -2.789062 8.0625 -2.46875 Z M 8.0625 -2.46875 "/></g></g></g><g fill="#ffffff" fill-opacity="1"><g transform="translate(164.087102, 277.458527)"><g><path d="M 7.09375 0 L 7.09375 -4.140625 L 2.265625 -4.140625 L 2.265625 0 L 1.0625 0 L 1.0625 -8.921875 L 2.265625 -8.921875 L 2.265625 -5.140625 L 7.09375 -5.140625 L 7.09375 -8.921875 L 8.3125 -8.921875 L 8.3125 0 Z M 7.09375 0 "/></g></g></g><g fill="#ffffff" fill-opacity="1"><g transform="translate(176.690074, 277.458527)"><g><path d="M 1.203125 0 L 1.203125 -8.921875 L 2.40625 -8.921875 L 2.40625 0 Z M 1.203125 0 "/></g></g></g><g fill="#ffffff" fill-opacity="1"><g transform="translate(183.534035, 277.458527)"><g/></g></g><g fill="#ffffff" fill-opacity="1"><g transform="translate(190.377996, 277.458527)"><g><path d="M 7 0 L 3.4375 -4.3125 L 2.265625 -3.421875 L 2.265625 0 L 1.0625 0 L 1.0625 -8.921875 L 2.265625 -8.921875 L 2.265625 -4.453125 L 6.578125 -8.921875 L 8 -8.921875 L 4.203125 -5.046875 L 8.5 0 Z M 7 0 "/></g></g></g><g fill="#ffffff" fill-opacity="1"><g transform="translate(202.265838, 277.458527)"><g><path d="M 7.390625 0 L 6.375 -2.609375 L 2.3125 -2.609375 L 1.28125 0 L 0.03125 0 L 3.671875 -8.921875 L 5.046875 -8.921875 L 8.625 0 Z M 4.34375 -8.015625 L 4.28125 -7.828125 C 4.175781 -7.484375 4.019531 -7.035156 3.8125 -6.484375 L 2.671875 -3.546875 L 6.015625 -3.546875 L 4.859375 -6.5 C 4.742188 -6.789062 4.628906 -7.117188 4.515625 -7.484375 Z M 4.34375 -8.015625 "/></g></g></g><g fill="#ffffff" fill-opacity="1"><g transform="translate(214.153679, 277.458527)"><g><path d="M 8.65625 0 L 8.65625 -5.953125 C 8.65625 -6.609375 8.671875 -7.242188 8.703125 -7.859375 C 8.492188 -7.097656 8.3125 -6.503906 8.15625 -6.078125 L 5.84375 0 L 5 0 L 2.65625 -6.078125 L 2.3125 -7.15625 L 2.09375 -7.859375 L 2.109375 -7.15625 L 2.140625 -5.953125 L 2.140625 0 L 1.0625 0 L 1.0625 -8.921875 L 2.65625 -8.921875 L 5.03125 -2.734375 C 5.113281 -2.484375 5.191406 -2.210938 5.265625 -1.921875 C 5.347656 -1.640625 5.398438 -1.4375 5.421875 -1.3125 C 5.460938 -1.488281 5.535156 -1.75 5.640625 -2.09375 C 5.742188 -2.4375 5.816406 -2.648438 5.859375 -2.734375 L 8.1875 -8.921875 L 9.734375 -8.921875 L 9.734375 0 Z M 8.65625 0 "/></g></g></g><g fill="#ffffff" fill-opacity="1"><g transform="translate(228.193244, 277.458527)"><g><path d="M 7.96875 -2.515625 C 7.96875 -1.722656 7.675781 -1.101562 7.09375 -0.65625 C 6.519531 -0.21875 5.71875 0 4.6875 0 L 1.0625 0 L 1.0625 -8.921875 L 4.3125 -8.921875 C 6.40625 -8.921875 7.453125 -8.195312 7.453125 -6.75 C 7.453125 -6.226562 7.300781 -5.785156 7 -5.421875 C 6.707031 -5.066406 6.289062 -4.828125 5.75 -4.703125 C 6.457031 -4.617188 7.003906 -4.378906 7.390625 -3.984375 C 7.773438 -3.597656 7.96875 -3.109375 7.96875 -2.515625 Z M 6.234375 -6.609375 C 6.234375 -7.085938 6.066406 -7.429688 5.734375 -7.640625 C 5.410156 -7.847656 4.9375 -7.953125 4.3125 -7.953125 L 2.265625 -7.953125 L 2.265625 -5.125 L 4.3125 -5.125 C 4.957031 -5.125 5.4375 -5.242188 5.75 -5.484375 C 6.070312 -5.734375 6.234375 -6.109375 6.234375 -6.609375 Z M 6.75 -2.609375 C 6.75 -3.660156 6.007812 -4.1875 4.53125 -4.1875 L 2.265625 -4.1875 L 2.265625 -0.96875 L 4.625 -0.96875 C 5.363281 -0.96875 5.898438 -1.101562 6.234375 -1.375 C 6.578125 -1.65625 6.75 -2.066406 6.75 -2.609375 Z M 6.75 -2.609375 "/></g></g></g><g fill="#ffffff" fill-opacity="1"><g transform="translate(240.081091, 277.458527)"><g><path d="M 9.46875 -4.5 C 9.46875 -3.570312 9.285156 -2.753906 8.921875 -2.046875 C 8.566406 -1.347656 8.054688 -0.8125 7.390625 -0.4375 C 6.722656 -0.0625 5.9375 0.125 5.03125 0.125 C 4.113281 0.125 3.320312 -0.0546875 2.65625 -0.421875 C 2 -0.796875 1.492188 -1.332031 1.140625 -2.03125 C 0.785156 -2.738281 0.609375 -3.5625 0.609375 -4.5 C 0.609375 -5.925781 1 -7.039062 1.78125 -7.84375 C 2.5625 -8.65625 3.648438 -9.0625 5.046875 -9.0625 C 5.953125 -9.0625 6.738281 -8.878906 7.40625 -8.515625 C 8.070312 -8.148438 8.582031 -7.625 8.9375 -6.9375 C 9.289062 -6.25 9.46875 -5.4375 9.46875 -4.5 Z M 8.234375 -4.5 C 8.234375 -5.613281 7.953125 -6.484375 7.390625 -7.109375 C 6.835938 -7.742188 6.054688 -8.0625 5.046875 -8.0625 C 4.023438 -8.0625 3.234375 -7.75 2.671875 -7.125 C 2.117188 -6.5 1.84375 -5.625 1.84375 -4.5 C 1.84375 -3.382812 2.125 -2.5 2.6875 -1.84375 C 3.25 -1.1875 4.03125 -0.859375 5.03125 -0.859375 C 6.0625 -0.859375 6.851562 -1.175781 7.40625 -1.8125 C 7.957031 -2.445312 8.234375 -3.34375 8.234375 -4.5 Z M 8.234375 -4.5 "/></g></g></g><g fill="#ffffff" fill-opacity="1"><g transform="translate(253.405526, 277.458527)"><g><path d="M 2.890625 0.125 C 1.378906 0.125 0.484375 -0.65625 0.203125 -2.21875 L 1.390625 -2.40625 C 1.460938 -1.914062 1.628906 -1.535156 1.890625 -1.265625 C 2.160156 -0.992188 2.5 -0.859375 2.90625 -0.859375 C 3.34375 -0.859375 3.6875 -1.007812 3.9375 -1.3125 C 4.1875 -1.613281 4.3125 -2.054688 4.3125 -2.640625 L 4.3125 -7.9375 L 2.609375 -7.9375 L 2.609375 -8.921875 L 5.515625 -8.921875 L 5.515625 -2.65625 C 5.515625 -1.789062 5.28125 -1.109375 4.8125 -0.609375 C 4.34375 -0.117188 3.703125 0.125 2.890625 0.125 Z M 2.890625 0.125 "/></g></g></g></svg>