<?xml version="1.0" encoding="UTF-8"?>
<svg version="1.1" xmlns="http://www.w3.org/2000/svg" width="512" height="512">
<path d="M0 0 C0.77988281 0.66902344 1.55976563 1.33804688 2.36328125 2.02734375 C14.23921658 12.46494976 25.34253797 23.56457662 34.74121094 36.296875 C35.97069396 37.96034931 37.22216212 39.60527552 38.4765625 41.25 C75.30013781 90.31646504 89.4697408 154.32874449 81.0390625 214.65234375 C74.20754556 258.48677897 56.03786012 299.37159582 27 333 C26.319375 333.79148437 25.63875 334.58296875 24.9375 335.3984375 C15.17631964 346.48742548 4.759869 357.03329827 -7 366 C-7.55768066 366.42877441 -8.11536133 366.85754883 -8.68994141 367.29931641 C-17.74523038 374.23031278 -27.07394175 380.39310491 -37 386 C-37.64098633 386.36834961 -38.28197266 386.73669922 -38.94238281 387.11621094 C-47.74511115 392.14322717 -56.78297392 396.34061395 -66.1875 400.125 C-67.16783203 400.52783203 -68.14816406 400.93066406 -69.15820312 401.34570312 C-78.15267551 404.85012385 -78.15267551 404.85012385 -83 403 C-85.046875 401.328125 -85.046875 401.328125 -86.75 399.25 C-87.32234375 398.57453125 -87.8946875 397.8990625 -88.484375 397.203125 C-91.56868452 392.71974724 -92.24936004 388.9359102 -92.25537109 383.53588867 C-92.26233002 382.24651901 -92.26928894 380.95714935 -92.27645874 379.62870789 C-92.27543718 378.60086968 -92.27543718 378.60086968 -92.27439499 377.55226707 C-92.27342225 375.38396879 -92.28646534 373.21615634 -92.30337524 371.04792786 C-92.3493797 364.88461208 -92.37417659 358.72134301 -92.38085938 352.55786133 C-92.38594354 348.77819657 -92.41054632 344.9990316 -92.44618607 341.21953773 C-92.4558381 339.79538319 -92.45839796 338.37115851 -92.45301437 336.94698143 C-92.40520786 323.66014925 -94.38352139 310.44159831 -100.8125 298.625 C-101.15651855 297.96636963 -101.50053711 297.30773926 -101.85498047 296.62915039 C-104.80434969 291.10094593 -108.14825692 285.94567489 -112 281 C-112.46792969 280.36835938 -112.93585938 279.73671875 -113.41796875 279.0859375 C-120.97331128 269.4777428 -131.36681656 264.65318219 -143 262 C-143 261.67 -143 261.34 -143 261 C-142.30253662 260.93530518 -141.60507324 260.87061035 -140.88647461 260.80395508 C-108.93179462 257.7582869 -77.82192228 252.46345148 -52 232 C-51.35546875 231.50886719 -50.7109375 231.01773437 -50.046875 230.51171875 C-44.10111284 225.75778729 -38.88502966 219.6119183 -35.36450195 212.86621094 C-33 210 -33 210 -29.46630859 209.38769531 C-28.06761257 209.41979991 -26.66942053 209.48532064 -25.2734375 209.578125 C-24.52170258 209.60416809 -23.76996765 209.63021118 -22.99545288 209.65704346 C-20.66154508 209.74405244 -18.33193614 209.87140468 -16 210 C-14.63195821 210.05214169 -13.26379078 210.1011104 -11.89550781 210.14648438 C-7.80152802 210.30112575 -3.71479083 210.51238159 0.375 210.75 C1.10615021 210.79123993 1.83730042 210.83247986 2.59060669 210.87496948 C14.58313876 211.56547842 26.50583325 212.67990751 38.4375 214.0625 C39.19705994 214.15035767 39.95661987 214.23821533 40.73919678 214.32873535 C53.09602293 215.77400573 53.09602293 215.77400573 58 217 C58.33 214.03 58.66 211.06 59 208 C30.0627509 204.44730266 1.10746934 202.54103589 -28 201 C-26.515 195.555 -26.515 195.555 -25 190 C-17.07115741 189.26009225 -9.26518027 188.85102774 -1.3046875 188.8671875 C-0.2323587 188.86623077 0.83997009 188.86527405 1.9447937 188.86428833 C4.19854797 188.8636128 6.45230425 188.86542294 8.70605469 188.86962891 C12.09574934 188.87495405 15.48530956 188.86967875 18.875 188.86328125 C28.69461151 188.85986761 38.49752382 188.91284819 48.3046875 189.4453125 C49.02181915 189.48405487 49.73895081 189.52279724 50.47781372 189.56271362 C54.06117206 189.78648613 57.50013577 190.19338075 61 191 C60.67 188.03 60.34 185.06 60 182 C49.32322474 181.21739956 38.7069561 180.86089061 28 180.90234375 C26.54313201 180.90421635 25.08626338 180.90563625 23.62939453 180.90663147 C19.85500244 180.91039054 16.08065085 180.92016151 12.30627441 180.93133545 C8.43075101 180.94169452 4.55522085 180.94615965 0.6796875 180.95117188 C-6.88022649 180.96179206 -14.4401075 180.97878543 -22 181 C-21.99410858 180.31780899 -21.98821716 179.63561798 -21.98214722 178.93275452 C-21.95856088 175.80023393 -21.94406287 172.66773212 -21.9296875 169.53515625 C-21.92026123 168.46221313 -21.91083496 167.38927002 -21.90112305 166.28381348 C-21.84560303 150.12440381 -24.86066288 133.58674359 -35.125 120.6875 C-37.52653696 117.16139213 -38.22851957 114.92488026 -37.62109375 110.77734375 C-36.8110053 106.83873892 -35.72877142 102.98371927 -34.60009766 99.12597656 C-30.56030516 84.81413235 -29.518915 66.75856696 -35.9140625 53.0390625 C-37.35980316 50.53546282 -38.43652474 49.173377 -41.234375 48.3125 C-57.22914129 46.50518177 -73.92557877 54.44942794 -87 63 C-88.42985546 64.2137992 -89.84879494 65.44073638 -91.25 66.6875 C-93.47568389 68.42015265 -94.37392938 69.04535141 -97.2109375 68.83984375 C-99.88511025 68.04797706 -102.41363635 67.04317866 -105 66 C-109.62939685 64.51996978 -114.29847676 63.23030515 -119 62 C-120.14855469 61.69578125 -121.29710937 61.3915625 -122.48046875 61.078125 C-148.78861931 55.29851058 -179.27940813 57.45312519 -204.28320312 67.24462891 C-207.36269811 68.40635892 -209.43712689 69.12644251 -212.6953125 68.39453125 C-215.23337946 66.85878565 -217.49737499 65.16824587 -219.8125 63.3125 C-232.09455138 54.20855356 -251.49999286 45.93333238 -267 48 C-273.8819406 54.76349068 -274.99199778 64.84959268 -275.1015625 74.08203125 C-275.07947962 79.3528385 -274.42805705 84.47573265 -273.6875 89.6875 C-273.56012451 90.65429688 -273.43274902 91.62109375 -273.30151367 92.6171875 C-272.71836741 96.85003109 -272.10674788 100.96039071 -270.8515625 105.05078125 C-269.29418372 110.22057623 -268.36287628 113.40982343 -270.41796875 118.5390625 C-272.09063921 121.58381958 -274.00628794 124.45449913 -275.94287109 127.3359375 C-282.37308111 137.45794939 -284.97608882 149.70311925 -285.75 161.5 C-285.79479492 162.16346436 -285.83958984 162.82692871 -285.88574219 163.51049805 C-286.09563488 167.81070062 -285.87660841 171.98991798 -285.50097656 176.27929688 C-285.36154633 177.88943665 -285.36154633 177.88943665 -285.21929932 179.53210449 C-285.14693054 180.34651001 -285.07456177 181.16091553 -285 182 C-285.58484161 181.99777939 -286.16968323 181.99555878 -286.77224731 181.99327087 C-326.89768066 181.81199687 -326.89768066 181.81199687 -367 183 C-367 185.97 -367 188.94 -367 192 C-366.33007019 191.92894547 -365.66014038 191.85789093 -364.96990967 191.78468323 C-355.99572681 190.92624429 -347.08075937 190.87100038 -338.078125 190.90234375 C-336.48101852 190.90421352 -334.88391146 190.90563477 -333.2868042 190.90663147 C-329.12437296 190.91041271 -324.96197775 190.92020438 -320.79956055 190.93133545 C-316.53564948 190.94164511 -312.27173249 190.94614937 -308.0078125 190.95117188 C-299.67185864 190.96183151 -291.33593383 190.97885376 -283 191 C-282.01 194.3 -281.02 197.6 -280 201 C-281.82313721 201.10489746 -281.82313721 201.10489746 -283.68310547 201.21191406 C-308.24577571 202.64198207 -332.64993916 204.40418613 -357.04125977 207.68041992 C-359.725159 207.97031382 -362.30379782 208.06158282 -365 208 C-364.67 210.97 -364.34 213.94 -364 217 C-363.22213135 216.88930176 -362.4442627 216.77860352 -361.64282227 216.66455078 C-338.41863317 213.38844866 -315.24776418 210.94439632 -291.78515625 210.1953125 C-288.88971831 210.10127167 -286.13137862 209.89695855 -283.24609375 209.5546875 C-280.15784476 209.25320637 -277.96737065 209.09290133 -275 210 C-271.63464016 213.25415664 -269.40673612 217.01169443 -267 221 C-250.0741467 243.92127604 -218.94481121 253.78554502 -192 258 C-182.35921039 259.25260608 -172.68605076 260.17335543 -163 261 C-165 263 -165 263 -168.5 263.8125 C-180.24230006 266.57789675 -188.28480787 273.40108439 -195.5 282.75 C-202.47586781 291.39298198 -210.29795983 291.60039507 -220.9161377 292.80264282 C-226.86888229 293.36641178 -232.8391591 293.32721991 -238.8125 293.3125 C-240.15300079 293.32827442 -241.49349578 293.34454962 -242.83398438 293.36132812 C-256.01020504 293.36786719 -264.72847052 291.00688109 -274.25390625 281.828125 C-276.41847505 279.59889625 -278.51830492 277.34273484 -280.6015625 275.0390625 C-292.91649679 261.45167325 -292.91649679 261.45167325 -309 253 C-312.22828237 253.30087716 -312.22828237 253.30087716 -315 254 C-314.360625 254.61875 -313.72125 255.2375 -313.0625 255.875 C-312.041343 256.91634937 -311.02056695 257.95807235 -310 259 C-309.32195312 259.65871094 -308.64390625 260.31742187 -307.9453125 260.99609375 C-299.03756247 270.13501377 -294.47391602 281.04655621 -289.95239258 292.80273438 C-285.24802374 305.01576023 -281.54067618 312.93490826 -269.2578125 318.80859375 C-261.80172723 321.53533956 -254.61394885 322.31201343 -246.71484375 322.4140625 C-245.77314835 322.43342865 -244.83145294 322.4527948 -243.86122131 322.4727478 C-240.88673642 322.53198873 -237.91221164 322.57870474 -234.9375 322.625 C-232.90688522 322.66323096 -230.87628576 322.70228558 -228.84570312 322.7421875 C-223.89726159 322.83764389 -218.9487443 322.92187698 -214 323 C-213.90705298 331.59749375 -213.83611067 340.19477528 -213.79275131 348.79264832 C-213.77193407 352.78561229 -213.74372511 356.77823086 -213.69824219 360.77099609 C-213.6545731 364.62896081 -213.63081885 368.48659467 -213.62049103 372.3447876 C-213.61313718 373.81192224 -213.59877712 375.27904009 -213.57707977 376.74603271 C-213.44637343 385.9549812 -213.78555713 392.6459875 -219.67578125 400.12890625 C-220.21589844 400.60199219 -220.75601563 401.07507813 -221.3125 401.5625 C-221.84488281 402.05878906 -222.37726563 402.55507813 -222.92578125 403.06640625 C-226.88129821 404.84676134 -230.5468499 403.49419512 -234.45874023 402.16381836 C-237.35385956 401.06307123 -240.20902914 399.89213028 -243.0625 398.6875 C-244.11381104 398.2445459 -245.16512207 397.8015918 -246.24829102 397.34521484 C-268.14772746 387.91357979 -287.95320946 375.57934382 -306 360 C-306.77988281 359.33097656 -307.55976563 358.66195313 -308.36328125 357.97265625 C-320.23921658 347.53505024 -331.34253797 336.43542338 -340.74121094 323.703125 C-341.97069396 322.03965069 -343.22216212 320.39472448 -344.4765625 318.75 C-380.62471934 270.58351267 -395.18494619 207.5112242 -387.48095703 148.15136719 C-380.92982459 103.28515846 -362.68058317 61.38137535 -333 27 C-332.33097656 26.22011719 -331.66195312 25.44023438 -330.97265625 24.63671875 C-320.53505024 12.76078342 -309.43542338 1.65746203 -296.703125 -7.74121094 C-295.03965069 -8.97069396 -293.39472448 -10.22216212 -291.75 -11.4765625 C-261.16904186 -34.4270688 -224.60018811 -48.2594161 -187 -54 C-186.17693359 -54.12987305 -185.35386719 -54.25974609 -184.50585938 -54.39355469 C-118.98033316 -64.31408601 -49.8803008 -43.06041866 0 0 Z " fill="#FFFFFF" transform="translate(409,76)"/>
</svg>
